<?xml version="1.0" standalone="no"?>
<!DOCTYPE svg PUBLIC "-//W3C//DTD SVG 20010904//EN"
 "http://www.w3.org/TR/2001/REC-SVG-20010904/DTD/svg10.dtd">
<svg version="1.0" xmlns="http://www.w3.org/2000/svg"
 width="512.000000pt" height="512.000000pt" viewBox="0 0 512.000000 512.000000"
 preserveAspectRatio="xMidYMid meet">
<metadata>
Created by potrace 1.11, written by Peter Selinger 2001-2013
</metadata>
<g transform="translate(0.000000,512.000000) scale(0.100000,-0.100000)"
fill="#000000" stroke="none">
<path d="M2478 5104 c-32 -8 -76 -25 -98 -39 -46 -29 -100 -78 -100 -90 0 -5
-6 -16 -14 -24 -30 -33 -54 -130 -50 -203 6 -124 69 -227 180 -289 l49 -27 0
-123 0 -123 -500 -2 c-489 -1 -501 -1 -556 -23 -67 -26 -140 -86 -173 -144
-32 -55 -46 -115 -49 -212 l-2 -80 -33 -2 c-72 -5 -142 -4 -151 1 -5 4 -12 2
-16 -4 -4 -6 -11 -8 -17 -4 -8 5 -221 9 -240 3 -5 -1 -16 -2 -25 -3 -75 -8
-101 -58 -96 -187 4 -114 24 -193 71 -284 40 -76 146 -191 204 -221 42 -21
178 -113 199 -133 29 -30 66 -86 85 -131 17 -43 18 -93 20 -993 l1 -948 -28
-6 c-33 -6 -67 -36 -80 -71 -16 -42 -10 -435 8 -494 29 -99 92 -170 193 -217
l55 -26 1229 -1 c733 -1 1243 2 1265 8 85 22 167 80 209 149 46 75 54 116 54
271 -1 82 2 148 6 149 4 0 45 2 92 3 47 2 104 8 127 15 100 28 203 137 228
243 9 41 12 339 11 1333 l-1 1280 -33 67 c-45 91 -113 152 -201 178 -36 11
-75 20 -86 20 -11 -1 -41 0 -66 0 -26 0 -53 -1 -60 -2 -9 -2 -15 7 -17 24 -4
34 -53 88 -80 88 -11 0 -25 7 -32 15 -7 8 -10 15 -8 15 12 0 -14 98 -38 143
-40 77 -105 133 -189 163 -45 15 -101 18 -540 20 -269 1 -494 2 -500 3 -9 1
-10 35 -6 213 1 28 6 38 22 43 32 10 89 52 122 88 60 67 87 145 84 246 -7 226
-206 376 -429 325z m136 -234 c78 -29 81 -166 5 -206 -68 -34 -152 1 -167 71
-21 103 62 173 162 135z m1623 -1392 c22 -8 39 -24 51 -48 16 -33 17 -110 17
-1285 -1 -977 -4 -1255 -13 -1273 -26 -47 -53 -54 -197 -56 -87 -2 -135 2
-138 8 -2 10 -1 2511 2 2543 1 6 10 10 21 8 28 -5 90 55 90 89 0 25 1 26 67
26 37 0 81 -5 100 -12z"/>
</g>
</svg>
